<mxfile host="65bd71144e">
    <diagram id="ASdbpJ2bhKKQx29TG6xX" name="Page-1">
        <mxGraphModel dx="1066" dy="734" grid="1" gridSize="10" guides="1" tooltips="1" connect="1" arrows="1" fold="1" page="1" pageScale="1" pageWidth="850" pageHeight="1100" math="0" shadow="0">
            <root>
                <mxCell id="0"/>
                <mxCell id="1" parent="0"/>
                <mxCell id="3" value="" style="whiteSpace=wrap;html=1;aspect=fixed;" vertex="1" parent="1">
                    <mxGeometry x="150" y="50" width="450" height="450" as="geometry"/>
                </mxCell>
                <mxCell id="4" value="Favorited Cocktails" style="text;html=1;strokeColor=none;fillColor=none;align=center;verticalAlign=middle;whiteSpace=wrap;rounded=0;" vertex="1" parent="1">
                    <mxGeometry x="302.5" y="100" width="145" height="30" as="geometry"/>
                </mxCell>
                <mxCell id="12" value="&lt;h1&gt;Sample Cocktail Name&lt;/h1&gt;&lt;div&gt;ingredients:&lt;/div&gt;&lt;div&gt;-alcohol&lt;/div&gt;&lt;div&gt;-some kind of non-alcoholic drink&amp;nbsp;&lt;/div&gt;&lt;div&gt;-fruit garnish&amp;nbsp;&lt;/div&gt;" style="text;html=1;strokeColor=none;fillColor=none;spacing=5;spacingTop=-20;whiteSpace=wrap;overflow=hidden;rounded=0;" vertex="1" parent="1">
                    <mxGeometry x="230" y="160" width="280" height="130" as="geometry"/>
                </mxCell>
                <mxCell id="13" value="Log Out" style="text;html=1;strokeColor=#001DBC;fillColor=#0050ef;align=center;verticalAlign=middle;whiteSpace=wrap;rounded=0;fontColor=#ffffff;" vertex="1" parent="1">
                    <mxGeometry x="490" y="60" width="60" height="30" as="geometry"/>
                </mxCell>
                <mxCell id="15" value="Home Page" style="text;html=1;strokeColor=#001DBC;fillColor=#0050ef;align=center;verticalAlign=middle;whiteSpace=wrap;rounded=0;fontColor=#ffffff;" vertex="1" parent="1">
                    <mxGeometry x="340" y="60" width="70" height="30" as="geometry"/>
                </mxCell>
                <mxCell id="16" value="Comments" style="text;html=1;strokeColor=#001DBC;fillColor=#0050ef;align=center;verticalAlign=middle;whiteSpace=wrap;rounded=0;shadow=1;fontColor=#ffffff;" vertex="1" parent="1">
                    <mxGeometry x="297.5" y="350" width="150" height="40" as="geometry"/>
                </mxCell>
                <mxCell id="17" value="" style="whiteSpace=wrap;html=1;aspect=fixed;" vertex="1" parent="1">
                    <mxGeometry x="160" y="580" width="450" height="450" as="geometry"/>
                </mxCell>
                <mxCell id="18" value="Log In" style="text;html=1;strokeColor=#001DBC;fillColor=#0050ef;align=center;verticalAlign=middle;whiteSpace=wrap;rounded=0;shadow=1;fontColor=#ffffff;" vertex="1" parent="1">
                    <mxGeometry x="510" y="590" width="60" height="30" as="geometry"/>
                </mxCell>
                <mxCell id="19" value="Sign up" style="text;html=1;strokeColor=#001DBC;fillColor=#0050ef;align=center;verticalAlign=middle;whiteSpace=wrap;rounded=0;shadow=1;fontColor=#ffffff;" vertex="1" parent="1">
                    <mxGeometry x="430" y="590" width="60" height="30" as="geometry"/>
                </mxCell>
                <mxCell id="20" value="Search for a cocktail" style="text;html=1;align=center;verticalAlign=middle;whiteSpace=wrap;rounded=0;shadow=1;" vertex="1" parent="1">
                    <mxGeometry x="270" y="820" width="160" height="30" as="geometry"/>
                </mxCell>
                <mxCell id="21" value="Search" style="text;html=1;strokeColor=#001DBC;fillColor=#0050ef;align=center;verticalAlign=middle;whiteSpace=wrap;rounded=0;shadow=1;fontColor=#ffffff;" vertex="1" parent="1">
                    <mxGeometry x="420" y="820" width="60" height="30" as="geometry"/>
                </mxCell>
                <mxCell id="22" value="At least one of the two parameters must be included in the search: name of the cocktail or name of the ingredient(s)" style="text;html=1;strokeColor=none;fillColor=none;align=center;verticalAlign=middle;whiteSpace=wrap;rounded=0;shadow=1;" vertex="1" parent="1">
                    <mxGeometry x="235" y="710" width="300" height="60" as="geometry"/>
                </mxCell>
                <mxCell id="23" value="Home" style="text;html=1;strokeColor=none;fillColor=none;align=center;verticalAlign=middle;whiteSpace=wrap;rounded=0;shadow=1;" vertex="1" parent="1">
                    <mxGeometry x="335" y="650" width="95" height="40" as="geometry"/>
                </mxCell>
            </root>
        </mxGraphModel>
    </diagram>
</mxfile>